# xmcd
#
# Track frame offsets:
#	150
#	16423
#	37525
#	56411
#	75671
#	90590
#	108339
#	123697
#	138072
#	151423
#	164620
#	181517
#	198132
#	217217
#	228513
#
# Disc length: 3292 seconds
#
# Revision: 1
# Processed by: cddbd v1.5.2PL0 Copyright (c) Steve Scherf et al.
# Submitted via: EasyCDDAExtractor 12.0.1.1
#
DISCID=b70cda0f
DTITLE=Gretchen Peters - Circus Girl (The Best Of)
DYEAR=2009
DGENRE=Country
TTITLE0=Circus Girl
TTITLE1=The Aviator's Song
TTITLE2=Sunday Morning (Up And Down My Street)
TTITLE3=The Secret Of Life
TTITLE4=If Heaven
TTITLE5=On A Bus To St. Cloud
TTITLE6=In A Perfect World
TTITLE7=This Town
TTITLE8=Picasso And Me
TTITLE9=When You Are Old
TTITLE10=Independence Day
TTITLE11=Tomorrow Morning
TTITLE12=The Way You Move Me
TTITLE13=Don't You Know
TTITLE14=Nobody's Girl
EXTD=
EXTT0=
EXTT1=
EXTT2=
EXTT3=
EXTT4=
EXTT5=
EXTT6=
EXTT7=
EXTT8=
EXTT9=
EXTT10=
EXTT11=
EXTT12=
EXTT13=
EXTT14=
PLAYORDER=
